<svg xmlns="http://www.w3.org/2000/svg" width="180" height="39" fill="none"><path fill="#272A33" d="M172.11 27.3a7.536 7.536 0 0 1-3.072-.63 7.879 7.879 0 0 1-2.513-1.75 8.387 8.387 0 0 1-1.697-2.609 8.378 8.378 0 0 1-.607-3.192c0-1.134.202-2.195.607-3.183a8.241 8.241 0 0 1 1.697-2.61 7.808 7.808 0 0 1 2.513-1.758 7.536 7.536 0 0 1 3.072-.631c1.094 0 2.118.21 3.073.63a7.819 7.819 0 0 1 2.513 1.76 8.133 8.133 0 0 1 1.688 2.609 8.22 8.22 0 0 1 .616 3.183 8.29 8.29 0 0 1-.616 3.192 8.274 8.274 0 0 1-1.688 2.61 7.89 7.89 0 0 1-2.513 1.749c-.955.42-1.979.63-3.073.63Zm-.009-2.982a4.36 4.36 0 0 0 1.839-.382 4.31 4.31 0 0 0 1.451-1.08c.411-.465.73-1.013.958-1.644a6.172 6.172 0 0 0 .341-2.093 6.09 6.09 0 0 0-.341-2.084 5.021 5.021 0 0 0-.958-1.653 4.31 4.31 0 0 0-1.451-1.08 4.362 4.362 0 0 0-1.839-.383 4.38 4.38 0 0 0-1.83.382 4.31 4.31 0 0 0-1.451 1.08 5.021 5.021 0 0 0-.958 1.654 6.265 6.265 0 0 0-.332 2.084c0 .758.111 1.456.332 2.093.228.63.547 1.179.958 1.644a4.31 4.31 0 0 0 1.451 1.08 4.378 4.378 0 0 0 1.83.382ZM153.223 27.027V11.248h5.743c.831 0 1.555.173 2.172.518a3.597 3.597 0 0 1 1.436 1.466c.34.63.51 1.375.51 2.231v.27c0 .947-.189 1.714-.566 2.3-.378.586-.844 1.014-1.398 1.285v.406c.503.03.894.24 1.171.63.277.377.416.88.416 1.511v5.162h-2.494v-4.734c0-.36-.082-.653-.246-.879-.151-.225-.409-.338-.774-.338h-3.477v5.951h-2.493Zm2.493-8.656h2.985c.592 0 1.052-.188 1.38-.563.34-.391.51-.902.51-1.533v-.226c0-.63-.164-1.134-.492-1.51-.327-.39-.793-.586-1.398-.586h-2.985v4.418ZM141.169 27.027V11.248h5.548c.847 0 1.592.203 2.234.609.655.39 1.162.946 1.522 1.668.372.721.558 1.578.558 2.57v.315c0 .977-.192 1.833-.578 2.57a4.214 4.214 0 0 1-1.541 1.69c-.642.391-1.374.586-2.195.586h-3.005v5.771h-2.543Zm2.543-8.476h2.754c.604 0 1.092-.195 1.464-.586.372-.39.559-.924.559-1.6v-.225c0-.677-.187-1.21-.559-1.6-.372-.392-.86-.587-1.464-.587h-2.754v4.599ZM134.232 27.11c-1.043 0-1.964-.215-2.763-.645a4.63 4.63 0 0 1-1.874-1.844c-.451-.8-.676-1.762-.676-2.887v-.623h2.511v.622c0 .933.252 1.637.754 2.11.502.46 1.185.69 2.048.69.876 0 1.526-.2 1.951-.6.438-.4.657-.911.657-1.533 0-.43-.109-.778-.328-1.044-.206-.267-.515-.482-.928-.644a9.318 9.318 0 0 0-1.468-.49l-.444-.11c-.928-.237-1.726-.533-2.396-.889-.657-.37-1.166-.851-1.527-1.444-.347-.592-.521-1.362-.521-2.31s.193-1.755.579-2.422c.4-.68.954-1.2 1.662-1.555.721-.37 1.565-.555 2.531-.555.966 0 1.823.193 2.57.578.76.37 1.352.933 1.777 1.688.438.74.657 1.673.657 2.799v.666h-2.512v-.666c0-.592-.103-1.066-.309-1.422a1.702 1.702 0 0 0-.85-.8c-.373-.177-.818-.266-1.333-.266-.773 0-1.346.17-1.719.51-.361.327-.541.778-.541 1.356 0 .385.083.71.251.977.18.267.444.49.792.667.348.178.792.333 1.333.466l.444.112c.966.236 1.804.54 2.512.91.721.37 1.282.86 1.681 1.466.399.608.599 1.385.599 2.333 0 .948-.213 1.785-.638 2.51-.412.711-1.004 1.274-1.777 1.689-.76.4-1.662.6-2.705.6ZM120.937 27.027V13.953h-3.932v-2.705h10.409v2.705h-3.932v13.074h-2.545ZM106.047 27.027V11.248h5.744c.831 0 1.555.173 2.172.518a3.603 3.603 0 0 1 1.436 1.466c.34.63.51 1.375.51 2.231v.27c0 .947-.189 1.714-.567 2.3-.378.586-.844 1.014-1.398 1.285v.406c.504.03.895.24 1.172.63.277.377.415.88.415 1.511v5.162h-2.494v-4.734c0-.36-.081-.653-.245-.879-.151-.225-.409-.338-.775-.338h-3.476v5.951h-2.494Zm2.494-8.656h2.985c.592 0 1.052-.188 1.379-.563.34-.391.51-.902.51-1.533v-.226c0-.63-.163-1.134-.491-1.51-.327-.39-.793-.586-1.398-.586h-2.985v4.418ZM91.73 27.027l3.54-15.779h4.425l3.54 15.78h-2.617l-.73-3.472h-4.81l-.732 3.471H91.73Zm3.944-6.221h3.617l-1.635-7.687h-.347l-1.635 7.687ZM82.452 27.027V11.248H88c.847 0 1.592.203 2.234.609.655.39 1.162.946 1.522 1.668.372.721.558 1.578.558 2.57v.315c0 .977-.192 1.833-.578 2.57a4.218 4.218 0 0 1-1.54 1.69c-.643.391-1.375.586-2.196.586h-3.005v5.771h-2.543Zm2.543-8.476h2.754c.604 0 1.092-.195 1.464-.586.372-.39.559-.924.559-1.6v-.225c0-.677-.187-1.21-.559-1.6-.372-.392-.86-.587-1.464-.587h-2.754v4.599Z"/><path fill="#222" d="M39.49 5.51H5.51V22.04h33.98v5.51H0V0h39.49v5.51Z"/><path fill="#EE753E" d="M49.592 38.571H11.02v-5.51h33.062v-16.53H11.02v-5.51h38.572v27.55Z"/><path fill="#272A33" d="M79.48 14.444H63.118v2.922h16.364V27.3H59.61v-3.506h16.363v-2.922H59.61v-9.935h19.87v3.507Z"/></svg>